<svg height="937pt" viewBox="0 0 937.5 937" width="937pt" xmlns="http://www.w3.org/2000/svg"><path d="m921.875 797.125h-93.75c25.882812 0 46.875-20.992188 46.875-46.875v-250c-.003906-20.476562-8.082031-40.125-22.464844-54.6875-.167968-.175781-.230468-.398438-.390625-.582031-.183593-.160157-.40625-.222657-.582031-.390625-14.5625-14.382813-34.210938-22.460938-54.6875-22.464844h-93.75c-20.476562.003906-40.125 8.082031-54.6875 22.464844-.175781.167968-.398438.230468-.582031.390625-.160157.183593-.222657.40625-.390625.582031-14.382813 14.5625-22.460938 34.210938-22.464844 54.6875v250c0 25.882812 20.992188 46.875 46.875 46.875h-93.75c8.632812 0 15.625-6.992188 15.625-15.625v-375c-.054688-43.125-35-78.070312-78.125-78.125h-31.25v-62.5c0-25.882812-20.992188-46.875-46.875-46.875h-93.75c-25.882812 0-46.875 20.992188-46.875 46.875v62.5h-31.25c-43.125.054688-78.070312 35-78.125 78.125v375c0 8.632812 6.992188 15.625 15.625 15.625h-46.875v-781.25c0-8.632812-6.992188-15.625-15.625-15.625h-125c-8.632812 0-15.625 6.992188-15.625 15.625v62.5c0 8.632812 6.992188 15.625 15.625 15.625h46.875v781.25c0 8.632812 6.992188 15.625 15.625 15.625h142.847656c7.003906 27.5625 31.835938 46.867188 60.277344 46.867188s53.273438-19.304688 60.277344-46.867188h316.945312c7.003906 27.5625 31.835938 46.867188 60.277344 46.867188s53.273438-19.304688 60.277344-46.867188h142.847656c8.632812 0 15.625-6.992188 15.625-15.625v-62.5c0-8.632812-6.992188-15.625-15.625-15.625zm-125-343.75c6.957031.03125 13.824219 1.636719 20.078125 4.6875l-46.875 46.875c-12.648437-6.273438-27.507813-6.273438-40.15625 0l-46.875-46.875c6.253906-3.050781 13.121094-4.65625 20.078125-4.6875zm-31.25 93.75c-.003906 7.050781-4.730469 13.222656-11.53125 15.070312-6.804688 1.84375-14.007812-1.09375-17.570312-7.171874-3.5625-6.082032-2.625-13.796876 2.304687-18.835938h.234375l.125-.1875c6.023438-5.9375 15.695312-5.9375 21.726562 0l.121094.1875.183594.125c2.820312 2.890625 4.402344 6.769531 4.40625 10.8125zm-109.375 203.125v-250c.03125-6.957031 1.636719-13.824219 4.6875-20.078125l46.875 46.875c-3.050781 6.253906-4.65625 13.121094-4.6875 20.078125 0 25.882812 20.992188 46.875 46.875 46.875s46.875-20.992188 46.875-46.875c-.03125-6.957031-1.636719-13.824219-4.6875-20.078125l46.875-46.875c3.050781 6.253906 4.65625 13.121094 4.6875 20.078125v250c0 8.632812-6.992188 15.625-15.625 15.625h-156.25c-8.632812 0-15.625-6.992188-15.625-15.625zm21.59375 78.125c-9.460938 8.226562-16.21875 19.117188-19.371094 31.25h-316.945312c-3.152344-12.132812-9.910156-23.023438-19.371094-31.25zm-209.09375-62.5h-156.25v-140.625c0-8.632812 6.992188-15.625 15.625-15.625h125c8.632812 0 15.625 6.992188 15.625 15.625zm-140.625-500c0-8.632812 6.992188-15.625 15.625-15.625h93.75c8.632812 0 15.625 6.992188 15.625 15.625v62.5h-15.625v-46.875c0-8.632812-6.992188-15.625-15.625-15.625h-62.5c-8.632812 0-15.625 6.992188-15.625 15.625v46.875h-15.625zm78.125 62.5h-31.25v-31.25h31.25zm-187.5 78.125c0-25.882812 20.992188-46.875 46.875-46.875h250c25.882812 0 46.875 20.992188 46.875 46.875v359.375h-62.5v-140.625c0-25.882812-20.992188-46.875-46.875-46.875h-125c-25.882812 0-46.875 20.992188-46.875 46.875v140.625h-62.5zm-125-328.125c0-8.632812-6.992188-15.625-15.625-15.625h-46.875v-31.25h93.75v781.25c0 8.632812 6.992188 15.625 15.625 15.625h99.71875c-9.460938 8.226562-16.21875 19.117188-19.371094 31.25h-127.222656zm187.5 828.125c-17.261719 0-31.25-13.988281-31.25-31.25s13.988281-31.25 31.25-31.25 31.25 13.988281 31.25 31.25-13.988281 31.25-31.25 31.25zm437.5 0c-17.261719 0-31.25-13.988281-31.25-31.25s13.988281-31.25 31.25-31.25 31.25 13.988281 31.25 31.25-13.988281 31.25-31.25 31.25zm187.5-46.875h-127.222656c-3.152344-12.132812-9.910156-23.023438-19.371094-31.25h146.59375zm0 0"/><path d="m296.875 500.25h187.5c8.632812 0 15.625-6.992188 15.625-15.625v-62.5c0-8.632812-6.992188-15.625-15.625-15.625h-187.5c-8.632812 0-15.625 6.992188-15.625 15.625v62.5c0 8.632812 6.992188 15.625 15.625 15.625zm15.625-62.5h156.25v31.25h-156.25zm0 0"/></svg>