<svg width="2213" height="2888" viewBox="0 0 2213 2888" fill="none" xmlns="http://www.w3.org/2000/svg"><path d="M1221.98 228.506H993.214c-3.428 15.777-14.115 87.889-14.115 139.47 0 53.098-.202 1365.214-.202 1817.804 0 52.7 12.285 186.28 21.663 240.39 3.02 0 211.58 1.81 216.12 1.81 13.55-84.5 21.68-166.98 21.18-224.48-3.95-451.87-.15-1782.628-.15-1835.119.2-69.584-15.73-139.875-15.73-139.875z" fill="#fff"/><path fill-rule="evenodd" clip-rule="evenodd" d="M1000.8 2427.7l216.07.6c2.96-16.34 5.02-32.59 7.12-49.03l.42-3.3.25-1.99-9.11-.91c-2.08 17.03-4.67 35.24-6.66 46.23h-201.26s-3.25-24.57-6.02-46.4l-8.375.8c2.168 20.33 4.647 35.79 7.005 50.48l.01.1c.19 1.14.37 2.28.55 3.42zm-23.362-244.66c0 37.32 7.328 111.56 9.035 126.13l8.935-1.11c-1.707-14.37-8.935-88.21-8.935-125.02l.445-444.04h-9.036l-.444 444.04zm.496-496.04h9.036l.425-425h-9.035l-.426 425zm250.386 0l-.43-425h9.04l.43 425h-9.04zm-.47-463h9.04l-.02-23h-9.04l.02 23zm-.06-61h9.04l-.24-241.665v-.418l1.12-554.844h-9.04l-1.12 554.005v1.257l.24 241.665zm-249.392 61h9.036l.023-23h-9.036l-.023 23zm.061-61l.243-242.022v-.785l.35-554.209h9.035l-.35 554.209v.785L987.495 1163h-9.036zM1222.8 2308.18l8.94 1.11.1-.81c3.11-24.47 6.03-49.86 6.03-110.32l-.46-459.16h-9.04l.46 459.16c0 56.84-2.81 84.94-5.92 109.21l-.11.81zm-8.74-2072.778c2.21 10.519 8.43 41.175 10.34 65.246l8.93-.809c-2.31-29.735-11.14-69.595-11.24-70l-.8-3.539H993.388l-.803 3.641c0 .029-.071.39-.202 1.049-1.203 6.054-7.414 37.311-9.135 69.051l9.036.506c1.406-28.016 6.526-55.334 8.436-65.145h213.34z" fill="#D9D9D8"/><path d="M1226.68 285.303h-4.03v-1h4.03v1zm-7.05 0h-4.03v-1h4.03v1zm-7.05 0h-4.03v-1h4.03v1zm-7.05 0h-4.03v-1h4.03v1zm-7.05 0h-4.03v-1h4.03v1zm-7.05 0h-4.03v-1h4.03v1zm-7.05 0h-4.02v-1h4.02v1zm-7.05 0h-4.02v-1h4.02v1zm-7.05 0h-4.02v-1h4.02v1zm-7.05 0h-4.02v-1h4.02v1zm-7.04 0h-4.03v-1h4.03v1zm-6.05-1h-1v-4h1v4zm0-7h-1v-4h1v4zm0-7h-1v-4.001h1v4.001zm0-7.001h-1v-4h1v4zm0-7h-1v-4h1v4zm0-7.001h-1v-4h1v4zm0-7h-1v-4h1v4zm-77.54 43.502h-4.03v-1h4.03v1zm-7.05 0h-4.03v-1h4.03v1zm-7.05 0h-4.03v-1h4.03v1zm-7.05 0h-4.03v-1h4.03v1zm-7.05 0h-4.03v-1h4.03v1zm-7.05 0h-4.03v-1h4.03v1zm-7.05 0h-4.03v-1h4.03v1zm-7.05 0h-4.03v-1h4.03v1zm-7.05 0h-4.03v-1h4.03v1zm-7.05 0h-4.03v-1h4.03v1zm-7.05 0h-4.026v-1h4.026v1zm-7.047 0h-3.525v-1h3.525v1zm79.057-2.5h-1.01v-4h1.01v4zm0-7h-1.01v-4h1.01v4zm0-7.001h-1.01v-4h1.01v4zm0-7h-1.01v-4h1.01v4zm0-7h-1.01v-4.001h1.01v4.001zm0-7.001h-1.01v-4h1.01v4zm0-7h-1.01v-4h1.01v4zm-49.85 11.8c1.31 0 2.62-1.2 2.62-2.5s-1.31-2.6-2.62-2.6-2.62 1.4-2.62 2.7c.1 1.2 1.31 2.4 2.62 2.4zm4.53 3.601c-.3-1.3-.3-1-.6-1.9-.31-1.001-1.01-1.301-1.62-1.301h-4.23c-.6 0-1.61.3-1.91 1.301-.3 1-.3 1-.6 1.9-.31 1-1.01 2.9-1.31 3.9-.3 1-1.01 2.3 0 2.6 1 .3 1.61-1.6 1.91-2.6.3-1 .3-1 .61-1.9.1-.2.2-.7.5-.6.2.1 0 .3-.1.6-.3.9-2.32 7.1-2.32 7.1h2.62v7.801c0 .6.2 1.3 1.11 1.3.9 0 1.21-.7 1.21-1.3v-6.801c0-.6 0-1 .2-1s.1.3.1 1v6.801c0 .4.2 1.3 1.21 1.3.9 0 1.1-.9 1.1-1.3v-7.801h2.62s-1.81-6.2-2.01-7.2c-.1-.5-.2-.6-.1-.7.2-.1.1 0 .5 1.1.3 1 .3 1 .61 1.9.2.7.6 2.3 1.31 2.3 1 0 1.3-.6.6-2.6-.81-2.1-1.11-2.9-1.41-3.9zm15.81-3.401c1.31 0 2.62-1.2 2.62-2.5s-1.31-2.6-2.62-2.6-2.62 1.4-2.62 2.6c.1 1.3 1.31 2.5 2.62 2.5zm5.14 3.601c0-1.3.1-1.1 0-1.9-.31-1.001-1.01-1.301-1.61-1.301h-6.15c-.6 0-1.11 0-1.51.401-.7.7-.6.8-.6 2.9v4c0 1-.2 2.6.9 2.6 1.01 0 1.01-.7 1.01-1.7v-2.7c0-.9-.1-1.1.1-1.1s.2 0 .2 1v14.801c0 .6.31 1.3 1.31 1.3 1.01 0 1.41-.6 1.41-1.2v-6.801c0-.6 0-1 .2-1 .21 0 .1.3.1 1v6.701c0 .4.41 1.3 1.41 1.3.61 0 1.21-.8 1.21-1.3v-14.901c0-.4 0-1 .1-1 .2 0 .2.2.2.8v2.5c0 1.7.31 2.2.91 2.2 1.01 0 .91-1.7.91-2.6v-4h-.1zm-15.41 23.101h1.01v-37.002h-1.01v37.002z" fill="#D9D9D8"/><path d="M1235 1166h-5v32h5v-32zm-250 0h-5v32h5v-32zm250 61h-5v32h5v-32zm-250 0h-5v32h5v-32zm250 463h-5v46h5v-46zm-250 0h-5v46h5v-46z" fill="#BDBDBD"/><path d="M1083.79 2421.4h-1v2h1v-2zm0-2.9h-1v-3.89h1v3.89zm0-6.89h-1v-3.9h1v3.9zm0-6.8h-1v-3.9h1v3.9zm0-6.9h-1v-3.9h1v3.9zm0-6.79h-1v-3.9h1v3.9zm0-6.9h-1v-3.9h1v3.9zm0-6.8h-1v-1.5h-1.51v-1h2.51v2.5zm-5.62-1.5h-4.22v-1h4.22v1zm-7.34 0h-4.21v-1h4.21v1zm-7.33 0h-4.12v-1h4.22v1h-.1zm-7.33 0h-4.22v-1h4.22v1zm-7.33 0h-4.22v-1h4.22v1zm-7.23 0h-4.22v-1h4.22v1zm-7.34 0h-4.21v-1h4.21v1zm-7.33 0h-4.22v-1h4.22v1zm-7.33 0h-4.22v-1h4.22v1zm-7.33 0h-4.22v-1h4.22v1zm-7.33-1h-2.01v1h2.01v-1zm33.34 20.69c-.3-1.3-.3-1-.6-1.89-.3-1-1-1.3-1.61-1.3h-4.21c-.61 0-1.61.3-1.91 1.3-.3.99-.3.99-.61 1.89-.3 1-1 2.9-1.3 3.9-.3 1-1.01 2.3 0 2.6 1 .3 1.61-1.6 1.91-2.6.3-1 .3-1 .6-1.9.1-.2.2-.7.5-.6.2.1 0 .3-.1.6-.3.9-2.31 7.1-2.31 7.1h2.61v7.8c0 .6.2 1.3 1.11 1.3.9 0 1.2-.7 1.2-1.3v-6.8c0-.6 0-1 .2-1s.1.3.1 1v6.8c0 .4.2 1.3 1.21 1.3.9 0 1.1-.9 1.1-1.3v-7.8h2.62s-1.81-6.2-2.01-7.2c-.1-.5-.2-.6-.1-.7.2-.1.1 0 .5 1.1.3 1 .3 1 .6 1.9.2.7.6 2.3 1.31 2.3 1 0 1.3-.6.6-2.6-.8-2.1-1.11-3-1.41-3.9zm-4.52-3.69c1.31 0 2.61-1.2 2.61-2.5s-1.3-2.6-2.61-2.6c-1.3 0-2.61 1.4-2.61 2.7.1 1.2 1.31 2.4 2.61 2.4zm25.51 3.89c0-1.3.11-1.1 0-1.89-.3-1-1-1.3-1.6-1.3h-6.13c-.6 0-1.1 0-1.51.4-.7.7-.6.8-.6 2.89v4c0 1-.2 2.6.91 2.6 1 0 1-.7 1-1.7v-2.7c0-.9-.1-1.1.1-1.1s.2 0 .2 1v14.8c0 .6.3 1.3 1.31 1.3 1 0 1.4-.6 1.4-1.2v-6.8c0-.6 0-1 .2-1 .21 0 .1.3.1 1v6.8c0 .4.41 1.3 1.41 1.3.6 0 1.21-.8 1.21-1.3v-14.9c0-.4 0-1 .1-1 .2 0 .2.2.2.8v2.5c0 1.7.3 2.2.9 2.2 1.01 0 .91-1.7.91-2.6v-4.1h-.11zm-5.12-3.59c1.31 0 2.61-1.2 2.61-2.5s-1.3-2.6-2.61-2.6c-1.3 0-2.61 1.4-2.61 2.6.1 1.3 1.31 2.5 2.61 2.5zm-10.24 26.69h1v-36.99h-1v36.99zm93.61 4.69h-1.01v-4h1.01v4zm0-7h-1.01v-3.99h1.01v3.99zm0-6.99h-1.01v-4h1.01v4zm0-7h-1.01v-4h1.01v4zm0-7h-1.01v-4h1.01v4zm0-6.99h-1.01v-4h1.01v4zm0-7h-1.01v-4h1.01v4zm79.84-6h-2.51v-1h2.51v1zm-5.52 0h-4.02v-1h4.02v1zm-7.03 0h-4.02v-1h4.02v1zm-7.03 0h-4.02v-1h4.02v1zm-7.03 0h-4.02v-1h4.02v1zm-7.03 0h-4.02v-1h4.02v1zm-7.03 0h-4.02v-1h4.02v1zm-7.03 0h-4.02v-1h4.02v1zm-7.03 0h-4.02v-1h4.02v1zm-7.04 0h-4.01v-1h4.01v1zm-7.03 0h-4.01v-1h4.01v1zm-7.03 0h-4.01v-1h4.01v1zm28.33 20.19c-.3-1.3-.3-1-.61-1.9-.3-1-1-1.3-1.6-1.3h-4.22c-.6 0-1.61.3-1.91 1.3-.3 1-.3 1-.6 1.9-.3 1-1.01 2.9-1.31 3.9-.3 1-1 2.3 0 2.6 1.01.3 1.61-1.6 1.91-2.6.3-1 .3-1 .6-1.9.1-.2.2-.7.51-.6.2.1 0 .3-.1.6-.31.9-2.31 7.1-2.31 7.1h2.61v7.8c0 .6.2 1.3 1.1 1.3.91 0 1.21-.7 1.21-1.3v-6.8c0-.6 0-1 .2-1s.1.3.1 1v6.8c0 .4.2 1.3 1.2 1.3.91 0 1.11-.9 1.11-1.3v-7.8h2.61s-1.81-6.2-2.01-7.2c-.1-.5-.2-.6-.1-.7.2-.1.1 0 .5 1.1.3 1 .3 1 .61 1.9.2.7.6 2.3 1.3 2.3 1.01 0 1.31-.6.6-2.6-.8-2-1.1-2.9-1.4-3.9zm-4.52-3.6c1.3 0 2.61-1.19 2.61-2.49 0-1.3-1.31-2.6-2.61-2.6-1.31 0-2.61 1.4-2.61 2.7.1 1.2 1.3 2.39 2.61 2.39zm25.51 3.8c0-1.3.1-1.1 0-1.9-.3-1-1.01-1.3-1.61-1.3h-6.12c-.61 0-1.11 0-1.51.4-.7.7-.6.8-.6 2.9v4c0 1-.2 2.6.9 2.6 1 0 1-.7 1-1.7v-2.7c0-.9-.1-1.1.11-1.1.2 0 .2 0 .2 1v14.8c0 .6.3 1.3 1.3 1.3 1.01 0 1.41-.6 1.41-1.2v-6.8c0-.6 0-1 .2-1s.1.3.1 1v6.8c0 .4.4 1.3 1.41 1.3.6 0 1.2-.8 1.2-1.3v-14.9c0-.4 0-1 .1-1 .2 0 .2.2.2.8v2.5c0 1.7.3 2.2.91 2.2 1 0 .9-1.7.9-2.6v-4.1h-.1zm-5.12-3.6c1.3 0 2.61-1.19 2.61-2.49 0-1.3-1.31-2.6-2.61-2.6-1.31 0-2.61 1.4-2.61 2.6.1 1.3 1.3 2.49 2.61 2.49zm-10.25 26.79h1.01v-36.98h-1.01v36.98z" fill="#D9D9D8"/></svg>